<svg xmlns="http://www.w3.org/2000/svg" viewBox="0 0 266.6 42.43"><defs><style>.cls-1{fill:#32d2dc}</style></defs><g id="レイヤー_2" data-name="レイヤー 2"><g id="レイヤー_1-2" data-name="レイヤー 1"><path class="cls-1" d="M190.53 22.36h-10.25a3 3 0 0 0 3.21 2.6 2.47 2.47 0 0 0 2.11-.76h4.79c-.85 2.78-3.48 4.5-6.81 4.5-4.65 0-7.74-3.15-7.74-7.48a7.14 7.14 0 0 1 7.39-7.45c4.24 0 7.39 2.69 7.39 7a9.6 9.6 0 0 1-.09 1.59zm-10.19-2.72h5.87a2.53 2.53 0 0 0-2.86-2.36 2.9 2.9 0 0 0-3.01 2.36zm33.54-5.49l-4.67 14.17H205l-2.54-8.24-2.58 8.24h-4.2L191 14.15h5l2 8.15 2.6-8.15h3.77l2.6 8.09 2-8.09zM229 22.36h-10.29a3 3 0 0 0 3.21 2.6 2.45 2.45 0 0 0 2.1-.76h4.8c-.82 2.8-3.48 4.5-6.82 4.5-4.65 0-7.75-3.15-7.75-7.48a7.14 7.14 0 0 1 7.4-7.45c4.23 0 7.39 2.69 7.39 7a9.6 9.6 0 0 1-.04 1.59zm-10.2-2.72h5.88a2.54 2.54 0 0 0-2.87-2.36 2.9 2.9 0 0 0-3.05 2.36zm17.5-12.07v20.75h-4.77V7.57zM37.12 10.61v26.51H5.3V10.61H0v31.82h42.43V10.61h-5.31zM0 0h42.43v5.3H0zm79.82 20.21v8.07h-4.75V21c0-2-1-3-2.53-3a2.77 2.77 0 0 0-2.16 1.16c0 .35.06.7.06 1.05v8.07h-4.72V21c0-2-1-3-2.54-3a2.68 2.68 0 0 0-2.12 1.25v9h-4.72v-14.1h4.72V15a5 5 0 0 1 3.52-1.28 5.52 5.52 0 0 1 4.34 1.9 6.89 6.89 0 0 1 5-1.9c3.4-.01 5.9 2.47 5.9 6.49zm17.72.99a7.67 7.67 0 0 1-15.33 0c0-4.25 3.21-7.37 7.67-7.37a7.28 7.28 0 0 1 7.66 7.37zm-4.46 0a3.19 3.19 0 1 0-6.38 0 3.2 3.2 0 1 0 6.38 0zm11.74 5.95c0 4.34-1.37 6.87-7 7l-.41-3.93c2.07-.21 2.62-.82 2.62-2.45V14.15h4.75zM99.67 9.28a2.77 2.77 0 0 1 5.53 0 2.77 2.77 0 0 1-5.53 0zm73.21 17.87c0 4.34-1.36 6.87-7 7l-.41-3.93c2.07-.21 2.62-.82 2.62-2.45V14.15h4.75zm-5.15-17.87a2.77 2.77 0 0 1 5.53 0 2.77 2.77 0 0 1-5.53 0zm-59.99 0a2.77 2.77 0 1 1 2.77 2.65 2.68 2.68 0 0 1-2.77-2.65zm5.15 19h-4.72V14.15h4.72zm26.73-8.07v8.07h-4.75V21c0-2-1-3-2.54-3a2.77 2.77 0 0 0-2.16 1.16c0 .35.06.7.06 1.05v8.07h-4.72V21c0-2-1-3-2.53-3a2.68 2.68 0 0 0-2.13 1.25v9h-4.72v-14.1h4.72V15a5 5 0 0 1 3.53-1.28 5.55 5.55 0 0 1 4.34 1.9 6.85 6.85 0 0 1 5-1.9c3.39-.01 5.9 2.47 5.9 6.49zm17.71.99a7.67 7.67 0 0 1-15.33 0c0-4.25 3.21-7.37 7.67-7.37s7.66 3.17 7.66 7.37zm-4.46 0a3.19 3.19 0 1 0-6.38 0 3.2 3.2 0 1 0 6.38 0zM262 29a1.08 1.08 0 0 1-.6-.25l-6.65-4.78-6.67 4.77a1.08 1.08 0 0 1-.59.25.48.48 0 0 1-.39-.19.86.86 0 0 1 0-.77l2.35-8-6.09-5c-.43-.3-.46-.58-.41-.76s.24-.39.8-.39h7.76l2.67-7.64c.17-.52.43-.63.62-.63s.44.11.61.63l2.59 7.6h7.75c.56 0 .75.21.81.39s0 .46-.43.78l-6.07 5 2.32 8a.83.83 0 0 1 0 .77.46.46 0 0 1-.38.22z"/><path class="cls-1" d="M255.69 17.46l-.98-2.96-.91 2.96h-3.23l2.59 1.75-.98 3.13 2.63-1.89 2.53 1.89-.91-3.13 2.46-1.75h-3.2z"/><path d="M252.18 22.57a.37.37 0 0 1-.21-.06.36.36 0 0 1-.13-.4l.9-2.88-2.36-1.59a.35.35 0 0 1-.14-.4.35.35 0 0 1 .34-.25h3l.83-2.71a.35.35 0 0 1 .34-.25.35.35 0 0 1 .34.24L256 17h2.94a.35.35 0 0 1 .21.64l-2.26 1.6.84 2.89a.35.35 0 0 1-.14.39.36.36 0 0 1-.2.06.31.31 0 0 1-.21-.07l-2.33-1.73-2.42 1.74a.36.36 0 0 1-.25.05z" fill="#fff"/></g></g></svg>