<svg xmlns="http://www.w3.org/2000/svg" width="301.69" height="42.43" viewBox="0 0 301.69 42.43"><defs><style>.e1827037-3f9f-4570-934e-a696598b8d9d{fill:#307fe5;}</style></defs><g id="a7a67ded-3eee-4c2f-b5f7-90a397dd5b36" data-name="レイヤー 2"><g id="ea8d070a-a407-4af0-b8f3-739140345420" data-name="レイヤー 3"><path class="e1827037-3f9f-4570-934e-a696598b8d9d" d="M112.51,6.6a2.67,2.67,0,1,0,2.76,2.68A2.68,2.68,0,0,0,112.51,6.6Z"/><path class="e1827037-3f9f-4570-934e-a696598b8d9d" d="M104.43,6.6a2.67,2.67,0,1,0,0,5.33,2.67,2.67,0,1,0,0-5.33Z"/><rect class="e1827037-3f9f-4570-934e-a696598b8d9d" x="110.17" y="14.15" width="4.72" height="14.13"/><path class="e1827037-3f9f-4570-934e-a696598b8d9d" d="M75.94,13.71a6.89,6.89,0,0,0-5,1.9,5.52,5.52,0,0,0-4.34-1.9A5,5,0,0,0,63.06,15v-.84H58.34V28.28h4.72v-9A2.68,2.68,0,0,1,65.18,18c1.55,0,2.54,1,2.54,3v7.31h4.72V20.21c0-.35,0-.7-.06-1.05A2.77,2.77,0,0,1,74.54,18c1.57,0,2.53,1,2.53,3v7.31h4.75V20.21C81.82,16.19,79.32,13.71,75.94,13.71Z"/><rect class="e1827037-3f9f-4570-934e-a696598b8d9d" width="42.43" height="5.3"/><polygon class="e1827037-3f9f-4570-934e-a696598b8d9d" points="37.12 37.12 5.3 37.12 5.3 10.61 0 10.61 0 42.43 42.43 42.43 42.43 10.61 37.12 10.61 37.12 37.12"/><path class="e1827037-3f9f-4570-934e-a696598b8d9d" d="M91.88,13.83c-4.46,0-7.67,3.12-7.67,7.37a7.67,7.67,0,0,0,15.33,0A7.28,7.28,0,0,0,91.88,13.83Zm0,10.81a3.21,3.21,0,0,1-3.21-3.41,3.19,3.19,0,1,1,6.38,0A3.21,3.21,0,0,1,91.91,24.64Z"/><path class="e1827037-3f9f-4570-934e-a696598b8d9d" d="M102.07,27.76c0,1.63-.55,2.24-2.62,2.45l.41,3.93c5.59-.12,7-2.65,7-7v-13h-4.75Z"/><path class="e1827037-3f9f-4570-934e-a696598b8d9d" d="M135.73,13.71a6.85,6.85,0,0,0-5,1.9,5.55,5.55,0,0,0-4.34-1.9A5,5,0,0,0,122.85,15v-.84h-4.72V28.28h4.72v-9A2.68,2.68,0,0,1,125,18c1.54,0,2.53,1,2.53,3v7.31h4.72V20.21c0-.35,0-.7-.06-1.05A2.77,2.77,0,0,1,134.33,18c1.58,0,2.54,1,2.54,3v7.31h4.75V20.21C141.62,16.19,139.11,13.71,135.73,13.71Z"/><path class="e1827037-3f9f-4570-934e-a696598b8d9d" d="M269,6.79a16.6,16.6,0,0,0-6.14,12.72A16.61,16.61,0,0,0,269,32.24l2.48-2.47c-2.91-3.09-4.72-5.83-4.72-10.26s1.81-7.16,4.72-10.25Z"/><path class="e1827037-3f9f-4570-934e-a696598b8d9d" d="M287.33,17.82a4,4,0,0,0,2.27-4c-.06-3.61-2.88-5.76-7.22-5.76-5.13,0-7.78,3-7.78,8.38v16.8h4.72V16.78c0-2.8.75-4.72,3.08-4.72,1.67,0,2.54.84,2.54,2.15s-.79,2.39-3.06,2.83v3.14h1.92c1.63,0,2.68.76,2.68,2.13s-1.16,2.3-3.43,2.3h-1.46v3.76c.87,0,1.49.06,2.07.06,4.8,0,7.48-2.16,7.48-5.77A4.67,4.67,0,0,0,287.33,17.82Z"/><path class="e1827037-3f9f-4570-934e-a696598b8d9d" d="M252.06,24.32a1.94,1.94,0,0,1-2.21-2.13v-4h4.8v-4h-4.8V9.35h-4.72v4.8h-2.77v4h2.77v4.14c0,3.82,2.33,6.32,6.17,6.32a10.12,10.12,0,0,0,3.79-.7l-.52-4.22A6.91,6.91,0,0,1,252.06,24.32Z"/><path class="e1827037-3f9f-4570-934e-a696598b8d9d" d="M295.55,6.79l-2.48,2.47c2.91,3.09,4.72,5.83,4.72,10.25s-1.81,7.17-4.72,10.26l2.48,2.47a16.61,16.61,0,0,0,6.14-12.73A16.6,16.6,0,0,0,295.55,6.79Z"/><path class="e1827037-3f9f-4570-934e-a696598b8d9d" d="M233.84,17.77A2.7,2.7,0,0,1,236.61,20h4.46c-.35-3.64-3.35-6.17-7.25-6.17a7.45,7.45,0,1,0,0,14.88c3.9,0,6.9-2.53,7.25-6.17h-4.46a2.7,2.7,0,0,1-2.77,2.18,3.2,3.2,0,0,1-3.23-3.47A3.17,3.17,0,0,1,233.84,17.77Z"/><path class="e1827037-3f9f-4570-934e-a696598b8d9d" d="M178.75,19.66l-2.62-.44c-1.13-.2-1.48-.64-1.48-1.13s.55-1,1.77-1,2.33.46,2.42,1.51H183c-.2-3.73-3.23-4.86-6.58-4.86-3.76,0-6.29,1.74-6.29,4.72,0,2.47,1.72,3.84,4.14,4.25l2.85.49c.93.15,1.49.5,1.49,1s-.79,1-2,1c-1.49,0-2.59-.52-2.8-1.74l-4.19,0c.32,3.76,3.32,5.24,7,5.24s6.61-1.46,6.61-4.72C183.15,21.44,181.37,20.16,178.75,19.66Z"/><path class="e1827037-3f9f-4570-934e-a696598b8d9d" d="M192.36,13.78A7.11,7.11,0,0,0,185,21.2c0,4.31,3.08,7.46,7.72,7.46,3.32,0,5.94-1.72,6.78-4.48h-4.77a2.48,2.48,0,0,1-2.1.75,3,3,0,0,1-3.21-2.59h10.23C200.34,17.33,197.34,13.78,192.36,13.78Zm-2.89,5.85a2.89,2.89,0,0,1,3-2.36,2.6,2.6,0,0,1,2.89,2.36Z"/><path class="e1827037-3f9f-4570-934e-a696598b8d9d" d="M151.67,13.83c-4.46,0-7.67,3.12-7.67,7.37a7.67,7.67,0,0,0,15.33,0C159.33,17,156.13,13.83,151.67,13.83Zm0,10.81a3.21,3.21,0,0,1-3.21-3.41,3.19,3.19,0,1,1,6.38,0A3.21,3.21,0,0,1,151.7,24.64Z"/><rect class="e1827037-3f9f-4570-934e-a696598b8d9d" x="202.25" y="7.6" width="4.75" height="20.68"/><path class="e1827037-3f9f-4570-934e-a696598b8d9d" d="M216.93,13.78a7.11,7.11,0,0,0-7.37,7.42c0,4.31,3.09,7.46,7.72,7.46,3.32,0,5.94-1.72,6.79-4.48h-4.78a2.48,2.48,0,0,1-2.1.75,3,3,0,0,1-3.2-2.59h10.22C224.91,17.33,221.91,13.78,216.93,13.78Zm-2.88,5.85a2.89,2.89,0,0,1,3-2.36,2.59,2.59,0,0,1,2.88,2.36Z"/></g></g></svg>