<svg xmlns="http://www.w3.org/2000/svg" width="131.1" height="150.14" viewBox="0 0 131.1 150.14"><g data-name="レイヤー 2"><path d="M61.55 36.48v11.29H54.9V37.54c0-2.81-1.34-4.15-3.54-4.15a3.85 3.85 0 00-3 1.62c0 .49.08 1 .08 1.47v11.29h-6.6V37.54c0-2.81-1.38-4.15-3.54-4.15a3.72 3.72 0 00-3 1.75v12.63h-6.6V28h6.6v1.18a7 7 0 014.94-1.79A7.77 7.77 0 0146.31 30a9.63 9.63 0 017-2.64c4.69.04 8.24 3.5 8.24 9.12zm26.26 1.39A10.28 10.28 0 0177.1 48.38c-6.24 0-10.72-4.48-10.72-10.51s4.48-10.31 10.72-10.31 10.71 4.36 10.71 10.31zm-6.23 0a4.47 4.47 0 10-8.93 0 4.47 4.47 0 108.93 0zm18 8.27c0 6.07-1.91 9.62-9.73 9.78l-.57-5.5c2.89-.29 3.66-1.14 3.66-3.43V28h6.64zm-7.21-25a3.87 3.87 0 113.87 3.71 3.77 3.77 0 01-3.88-3.65zM28.1 62a3.88 3.88 0 113.9 3.67A3.74 3.74 0 0128.1 62zm7.22 26.57h-6.61V68.76h6.61zm39.44-11.33v11.29h-6.64V78.3c0-2.81-1.34-4.16-3.54-4.16a3.87 3.87 0 00-3 1.63c0 .49.08 1 .08 1.47v11.29H55V78.3c0-2.81-1.38-4.16-3.54-4.16a3.75 3.75 0 00-3 1.75v12.64h-6.6V68.76h6.6v1.18a7 7 0 014.93-1.79 7.79 7.79 0 016.08 2.65 9.64 9.64 0 017-2.65c4.79 0 8.29 3.47 8.29 9.09zm26.52 1.38a10.72 10.72 0 01-21.43 0c0-5.94 4.48-10.3 10.72-10.3s10.71 4.36 10.71 10.3zm-6.23 0a4.47 4.47 0 10-8.93 0 4.47 4.47 0 108.93 0zm16.92-61v86.81H16.3V17.67H7.44v95.67h113.39V17.67zM120.83 0H7.44v8.86h113.39zM7 142.18c1.25 0 2-.35 2-1s-.55-.84-1.49-1l-2.85-.49c-2.39-.37-4.11-1.69-4.11-4.21 0-3 2.54-4.72 6.3-4.72 3.35 0 6.37 1.13 6.58 4.86H9.26c-.08-1.05-1.1-1.51-2.41-1.51s-1.78.43-1.78 1 .35.93 1.48 1.13l2.63.44c2.62.5 4.39 1.78 4.39 4.28 0 3.27-2.91 4.72-6.61 4.72s-6.64-1.48-7-5.24h4.19c.25 1.21 1.36 1.74 2.85 1.74zm23.07-2.86H19.84a3 3 0 003.2 2.59 2.48 2.48 0 002.1-.75h4.78c-.85 2.76-3.47 4.48-6.79 4.48-4.63 0-7.72-3.14-7.72-7.45a7.11 7.11 0 017.37-7.43c4.98 0 7.98 3.55 7.28 8.56zm-10.17-2.71h5.88a2.59 2.59 0 00-2.88-2.36 2.9 2.9 0 00-3 2.36zm17.52-12v20.68h-4.74v-20.71zm17.22 14.74H44.41a3 3 0 003.21 2.59 2.44 2.44 0 002.09-.75h4.78c-.84 2.76-3.46 4.48-6.78 4.48-4.64 0-7.72-3.14-7.72-7.45a7.11 7.11 0 017.37-7.43c4.98-.03 7.98 3.52 7.28 8.53zm-10.17-2.71h5.89a2.6 2.6 0 00-2.89-2.36 2.9 2.9 0 00-3 2.33zM67 139.47h4.45c-.35 3.64-3.35 6.17-7.25 6.17a7.45 7.45 0 110-14.88c3.9 0 6.9 2.53 7.25 6.17H67a2.7 2.7 0 00-2.77-2.18 3.46 3.46 0 000 6.9 2.7 2.7 0 002.77-2.18zm18.48 5.47a10 10 0 01-3.79.7c-3.85 0-6.18-2.5-6.18-6.32v-4.13h-2.72v-4.05h2.76v-4.81h4.72v4.81h4.81v4.05h-4.81v4a2 2 0 002.22 2.12 6.81 6.81 0 002.5-.58zm10.62-8.57c0 4.43 1.81 7.17 4.72 10.26l-2.48 2.47a16.27 16.27 0 010-25.46l2.48 2.48c-2.82 3.09-4.68 5.82-4.68 10.25zm35 0a16.61 16.61 0 01-6.1 12.73l-2.48-2.47c2.91-3.09 4.72-5.83 4.72-10.26s-1.81-7.16-4.72-10.25l2.48-2.48a16.64 16.64 0 016.1 12.73zm-10.55 3.15c0 3.61-2.68 5.77-7.48 5.77-.58 0-1.2 0-2.07-.06v-3.76h1.46c2.27 0 3.43-.87 3.43-2.3s-1-2.13-2.68-2.13h-1.92v-3.14c2.27-.44 3.06-1.66 3.06-2.83s-.87-2.16-2.54-2.16c-2.33 0-3.08 1.93-3.08 4.72v16.51H104v-16.8c0-5.36 2.65-8.39 7.78-8.39 4.34 0 7.16 2.16 7.22 5.77a4 4 0 01-2.27 4 4.66 4.66 0 013.82 4.8z" fill="#307fe5" data-name="レイヤー 3"/></g></svg>