<svg xmlns="http://www.w3.org/2000/svg" width="360" height="360" viewBox="0 0 360 360"><defs><style>.a{fill:#666}</style></defs><path class="a" d="M171.78 116v35.8h-21.09v-32.47c0-8.92-4.27-13.19-11.25-13.19-3.24 0-6.47 1.42-9.58 5.17.13 1.55.26 3.11.26 4.66v35.83h-21v-32.47c0-8.92-4.4-13.19-11.26-13.19-3.23 0-6.34 1.55-9.44 5.56v40.1h-21V89.06h21v3.75a22.08 22.08 0 0 1 15.65-5.69c7.89 0 14.62 3 19.28 8.41 6.59-5.82 12.93-8.41 22.25-8.41 15.05 0 26.18 11 26.18 28.88zm83.4 4.37c0 19.14-14.23 33.37-34 33.37s-34-14.23-34-33.37c0-18.89 14.23-32.73 34-32.73s34 13.84 34 32.73zm-19.8.13c0-8.15-5.69-14.75-14.1-14.75s-14.23 6.6-14.23 14.75c0 8.41 5.69 15.13 14.23 15.13s14.1-6.72 14.1-15.13zm57.14 26.26c0 19.27-6.08 30.53-30.92 31.05l-1.81-17.47c9.18-.9 11.64-3.62 11.64-10.86V89.06h21.09zm-22.9-79.3a12 12 0 0 1 12.29-11.91c6.86 0 12.29 5.05 12.29 11.91s-5.43 11.77-12.29 11.77-12.29-5.05-12.29-11.77zM65.6 196.86C65.6 190 71 185 77.89 185a12 12 0 0 1 12.29 11.9c0 6.73-5.56 11.77-12.29 11.77s-12.29-5.08-12.29-11.81zm22.9 84.35h-21v-62.75h21zm125.25-35.84v35.84h-21.09v-32.47c0-8.93-4.27-13.2-11.25-13.2-3.24 0-6.47 1.42-9.58 5.17.13 1.56.26 3.11.26 4.66v35.84h-21v-32.47c0-8.93-4.4-13.2-11.26-13.2-3.23 0-6.34 1.55-9.44 5.56v40.11h-21v-62.75h21v3.75a22.08 22.08 0 0 1 15.65-5.69c7.89 0 14.62 3 19.28 8.41 6.59-5.82 12.93-8.41 22.25-8.41 15.05 0 26.18 11 26.18 28.85zm84.25 4.4c0 19.15-14.24 33.38-34 33.38s-34-14.23-34-33.38c0-18.89 14.23-32.73 34-32.73s34 13.84 34 32.73zm-19.8.13c0-8.15-5.69-14.75-14.1-14.75s-14.23 6.6-14.23 14.75c0 8.41 5.69 15.14 14.23 15.14s14.05-6.73 14.05-15.14z"/><path class="a" d="M331.88 56.25v275.63H28.13V56.25H0V360h360V56.25h-28.12z"/><path fill="#ff8873" d="M0 0h90v28.13H0z"/><path fill="#ffc476" d="M90 0h90v28.13H90z"/><path fill="#4fb2a3" d="M180 0h90v28.13h-90z"/><path fill="#588bba" d="M270 0h90v28.13h-90z"/></svg>